<mxfile host="app.diagrams.net" modified="2023-03-08T08:16:40.112Z" agent="5.0 (Macintosh; Intel Mac OS X 10_15_7) AppleWebKit/537.36 (KHTML, like Gecko) Chrome/110.0.0.0 Safari/537.36" etag="d-M1PfYJrITGr8DLaE58" version="21.0.2" type="github">
  <diagram id="1qVJCfuYaMeoUfc-0dYW" name="Page-1">
    <mxGraphModel dx="1434" dy="771" grid="1" gridSize="10" guides="1" tooltips="1" connect="1" arrows="1" fold="1" page="1" pageScale="1" pageWidth="827" pageHeight="1169" math="0" shadow="0">
      <root>
        <mxCell id="0" />
        <mxCell id="1" parent="0" />
        <mxCell id="QOcSFR8y_e22kkafj4sU-1" value="&lt;b&gt;Bifrost&lt;/b&gt;" style="ellipse;whiteSpace=wrap;html=1;aspect=fixed;" parent="1" vertex="1">
          <mxGeometry x="119" y="236" width="170" height="170" as="geometry" />
        </mxCell>
        <mxCell id="QOcSFR8y_e22kkafj4sU-2" value="&lt;b&gt;Filecoin&lt;/b&gt;" style="ellipse;whiteSpace=wrap;html=1;aspect=fixed;" parent="1" vertex="1">
          <mxGeometry x="549" y="236" width="170" height="170" as="geometry" />
        </mxCell>
        <mxCell id="QOcSFR8y_e22kkafj4sU-6" value="user" style="shape=hexagon;perimeter=hexagonPerimeter2;whiteSpace=wrap;html=1;fixedSize=1;" parent="1" vertex="1">
          <mxGeometry x="259" y="296" width="60" height="30" as="geometry" />
        </mxCell>
        <mxCell id="QOcSFR8y_e22kkafj4sU-10" value="worker" style="ellipse;whiteSpace=wrap;html=1;aspect=fixed;" parent="1" vertex="1">
          <mxGeometry x="680.25" y="346" width="35" height="35" as="geometry" />
        </mxCell>
        <mxCell id="womPOICztjm91fhaPhi_-1" value="Relayer" style="shape=cylinder3;whiteSpace=wrap;html=1;boundedLbl=1;backgroundOutline=1;size=15;" parent="1" vertex="1">
          <mxGeometry x="389" y="460" width="60" height="80" as="geometry" />
        </mxCell>
        <mxCell id="womPOICztjm91fhaPhi_-3" value="miner" style="ellipse;whiteSpace=wrap;html=1;aspect=fixed;" parent="1" vertex="1">
          <mxGeometry x="670.25" y="401" width="30" height="30" as="geometry" />
        </mxCell>
        <mxCell id="womPOICztjm91fhaPhi_-4" value="miner" style="ellipse;whiteSpace=wrap;html=1;aspect=fixed;" parent="1" vertex="1">
          <mxGeometry x="710.25" y="401" width="30" height="30" as="geometry" />
        </mxCell>
        <mxCell id="womPOICztjm91fhaPhi_-7" value="" style="endArrow=none;dashed=1;html=1;rounded=0;exitX=1;exitY=0.5;exitDx=0;exitDy=0;" parent="1" source="womPOICztjm91fhaPhi_-3" edge="1">
          <mxGeometry width="50" height="50" relative="1" as="geometry">
            <mxPoint x="700.25" y="461" as="sourcePoint" />
            <mxPoint x="710.25" y="416" as="targetPoint" />
          </mxGeometry>
        </mxCell>
        <mxCell id="womPOICztjm91fhaPhi_-11" value="" style="endArrow=classic;html=1;rounded=0;dashed=1;exitX=1;exitY=0.5;exitDx=0;exitDy=0;exitPerimeter=0;" parent="1" edge="1" source="womPOICztjm91fhaPhi_-1">
          <mxGeometry width="50" height="50" relative="1" as="geometry">
            <mxPoint x="450" y="500" as="sourcePoint" />
            <mxPoint x="550" y="400" as="targetPoint" />
          </mxGeometry>
        </mxCell>
        <mxCell id="womPOICztjm91fhaPhi_-12" value="" style="endArrow=classic;html=1;rounded=0;dashed=1;entryX=0;entryY=0.5;entryDx=0;entryDy=0;entryPerimeter=0;exitX=1;exitY=1;exitDx=0;exitDy=-15;exitPerimeter=0;" parent="1" source="vg2QMB-9QiaMBjMP-zvf-1" target="womPOICztjm91fhaPhi_-1" edge="1">
          <mxGeometry width="50" height="50" relative="1" as="geometry">
            <mxPoint x="119" y="506" as="sourcePoint" />
            <mxPoint x="279" y="536" as="targetPoint" />
          </mxGeometry>
        </mxCell>
        <mxCell id="sweHYaOIXjVTSPfrOcY_-59" value="4. Relay &lt;br&gt;redeem &lt;br&gt;info." style="edgeLabel;html=1;align=center;verticalAlign=middle;resizable=0;points=[];" parent="womPOICztjm91fhaPhi_-12" vertex="1" connectable="0">
          <mxGeometry x="-0.1814" y="3" relative="1" as="geometry">
            <mxPoint x="34" y="12" as="offset" />
          </mxGeometry>
        </mxCell>
        <mxCell id="womPOICztjm91fhaPhi_-15" value="vFIL Redeeming - FVM" style="text;html=1;strokeColor=none;fillColor=none;align=center;verticalAlign=middle;whiteSpace=wrap;rounded=0;fontStyle=1;fontSize=24;" parent="1" vertex="1">
          <mxGeometry x="119" y="60" width="260" height="30" as="geometry" />
        </mxCell>
        <mxCell id="yuQFEDINcLpY2eNo5cRC-3" value="worker" style="ellipse;whiteSpace=wrap;html=1;aspect=fixed;" parent="1" vertex="1">
          <mxGeometry x="720.25" y="346" width="35" height="35" as="geometry" />
        </mxCell>
        <mxCell id="yuQFEDINcLpY2eNo5cRC-4" value="" style="endArrow=none;dashed=1;html=1;rounded=0;exitX=1;exitY=0.5;exitDx=0;exitDy=0;entryX=0;entryY=0.5;entryDx=0;entryDy=0;" parent="1" source="QOcSFR8y_e22kkafj4sU-10" target="yuQFEDINcLpY2eNo5cRC-3" edge="1">
          <mxGeometry width="50" height="50" relative="1" as="geometry">
            <mxPoint x="710.25" y="521" as="sourcePoint" />
            <mxPoint x="760.25" y="471" as="targetPoint" />
          </mxGeometry>
        </mxCell>
        <mxCell id="a1JTIRyVCKcMxM_mY2sI-1" value="Vtoken-minting module" style="shape=cylinder3;whiteSpace=wrap;html=1;boundedLbl=1;backgroundOutline=1;size=15;" parent="1" vertex="1">
          <mxGeometry x="120" y="216" width="139" height="50" as="geometry" />
        </mxCell>
        <mxCell id="a1JTIRyVCKcMxM_mY2sI-2" value="" style="curved=1;endArrow=classic;html=1;rounded=0;exitX=0.625;exitY=0;exitDx=0;exitDy=0;" parent="1" source="QOcSFR8y_e22kkafj4sU-6" edge="1">
          <mxGeometry width="50" height="50" relative="1" as="geometry">
            <mxPoint x="288" y="286" as="sourcePoint" />
            <mxPoint x="260" y="246" as="targetPoint" />
            <Array as="points">
              <mxPoint x="319" y="256" />
            </Array>
          </mxGeometry>
        </mxCell>
        <mxCell id="a1JTIRyVCKcMxM_mY2sI-3" value="1. Transfer vFil.&amp;nbsp;" style="edgeLabel;html=1;align=center;verticalAlign=middle;resizable=0;points=[];" parent="a1JTIRyVCKcMxM_mY2sI-2" vertex="1" connectable="0">
          <mxGeometry x="0.6472" y="3" relative="1" as="geometry">
            <mxPoint x="29" y="6" as="offset" />
          </mxGeometry>
        </mxCell>
        <mxCell id="sweHYaOIXjVTSPfrOcY_-1" value="vFil contract" style="swimlane;whiteSpace=wrap;html=1;fillColor=#f8cecc;strokeColor=#b85450;" parent="1" vertex="1">
          <mxGeometry x="576.5" y="226" width="115" height="40" as="geometry" />
        </mxCell>
        <mxCell id="sweHYaOIXjVTSPfrOcY_-2" value="&lt;font style=&quot;font-size: 14px;&quot;&gt;&lt;b&gt;Scenario 1:&lt;/b&gt; user redeem in Bifrost&lt;/font&gt;" style="text;html=1;strokeColor=none;fillColor=none;align=center;verticalAlign=middle;whiteSpace=wrap;rounded=0;" parent="1" vertex="1">
          <mxGeometry x="120" y="120" width="230" height="30" as="geometry" />
        </mxCell>
        <mxCell id="sweHYaOIXjVTSPfrOcY_-3" value="&lt;b&gt;Bifrost&lt;/b&gt;" style="ellipse;whiteSpace=wrap;html=1;aspect=fixed;" parent="1" vertex="1">
          <mxGeometry x="119" y="690" width="170" height="170" as="geometry" />
        </mxCell>
        <mxCell id="sweHYaOIXjVTSPfrOcY_-4" value="&lt;b&gt;Filecoin&lt;/b&gt;" style="ellipse;whiteSpace=wrap;html=1;aspect=fixed;" parent="1" vertex="1">
          <mxGeometry x="549" y="690" width="170" height="170" as="geometry" />
        </mxCell>
        <mxCell id="sweHYaOIXjVTSPfrOcY_-6" value="user" style="shape=hexagon;perimeter=hexagonPerimeter2;whiteSpace=wrap;html=1;fixedSize=1;" parent="1" vertex="1">
          <mxGeometry x="500" y="751" width="60" height="30" as="geometry" />
        </mxCell>
        <mxCell id="sweHYaOIXjVTSPfrOcY_-8" value="worker" style="ellipse;whiteSpace=wrap;html=1;aspect=fixed;" parent="1" vertex="1">
          <mxGeometry x="680.25" y="800" width="35" height="35" as="geometry" />
        </mxCell>
        <mxCell id="sweHYaOIXjVTSPfrOcY_-10" value="Relayer" style="shape=cylinder3;whiteSpace=wrap;html=1;boundedLbl=1;backgroundOutline=1;size=15;" parent="1" vertex="1">
          <mxGeometry x="389" y="870" width="60" height="80" as="geometry" />
        </mxCell>
        <mxCell id="sweHYaOIXjVTSPfrOcY_-11" value="miner" style="ellipse;whiteSpace=wrap;html=1;aspect=fixed;" parent="1" vertex="1">
          <mxGeometry x="670.25" y="855" width="30" height="30" as="geometry" />
        </mxCell>
        <mxCell id="sweHYaOIXjVTSPfrOcY_-12" value="miner" style="ellipse;whiteSpace=wrap;html=1;aspect=fixed;" parent="1" vertex="1">
          <mxGeometry x="710.25" y="855" width="30" height="30" as="geometry" />
        </mxCell>
        <mxCell id="sweHYaOIXjVTSPfrOcY_-13" value="" style="endArrow=none;dashed=1;html=1;rounded=0;exitX=1;exitY=0.5;exitDx=0;exitDy=0;" parent="1" source="sweHYaOIXjVTSPfrOcY_-11" edge="1">
          <mxGeometry width="50" height="50" relative="1" as="geometry">
            <mxPoint x="700.25" y="915" as="sourcePoint" />
            <mxPoint x="710.25" y="870" as="targetPoint" />
          </mxGeometry>
        </mxCell>
        <mxCell id="sweHYaOIXjVTSPfrOcY_-14" value="" style="endArrow=classic;html=1;rounded=0;dashed=1;exitX=0;exitY=0;exitDx=0;exitDy=52.5;exitPerimeter=0;" parent="1" source="sweHYaOIXjVTSPfrOcY_-10" target="vg2QMB-9QiaMBjMP-zvf-2" edge="1">
          <mxGeometry width="50" height="50" relative="1" as="geometry">
            <mxPoint x="549" y="960" as="sourcePoint" />
            <mxPoint x="599" y="720" as="targetPoint" />
          </mxGeometry>
        </mxCell>
        <mxCell id="sweHYaOIXjVTSPfrOcY_-78" value="4. Sync vFil/FIL&lt;br&gt;exchange rate" style="edgeLabel;html=1;align=center;verticalAlign=middle;resizable=0;points=[];" parent="sweHYaOIXjVTSPfrOcY_-14" vertex="1" connectable="0">
          <mxGeometry x="-0.2637" y="-2" relative="1" as="geometry">
            <mxPoint as="offset" />
          </mxGeometry>
        </mxCell>
        <mxCell id="sweHYaOIXjVTSPfrOcY_-17" value="worker" style="ellipse;whiteSpace=wrap;html=1;aspect=fixed;" parent="1" vertex="1">
          <mxGeometry x="720.25" y="800" width="35" height="35" as="geometry" />
        </mxCell>
        <mxCell id="sweHYaOIXjVTSPfrOcY_-18" value="" style="endArrow=none;dashed=1;html=1;rounded=0;exitX=1;exitY=0.5;exitDx=0;exitDy=0;entryX=0;entryY=0.5;entryDx=0;entryDy=0;" parent="1" source="sweHYaOIXjVTSPfrOcY_-8" target="sweHYaOIXjVTSPfrOcY_-17" edge="1">
          <mxGeometry width="50" height="50" relative="1" as="geometry">
            <mxPoint x="710.25" y="975" as="sourcePoint" />
            <mxPoint x="760.25" y="925" as="targetPoint" />
          </mxGeometry>
        </mxCell>
        <mxCell id="sweHYaOIXjVTSPfrOcY_-19" value="Vtoken-minting module" style="shape=cylinder3;whiteSpace=wrap;html=1;boundedLbl=1;backgroundOutline=1;size=15;" parent="1" vertex="1">
          <mxGeometry x="159" y="660" width="100" height="60" as="geometry" />
        </mxCell>
        <mxCell id="sweHYaOIXjVTSPfrOcY_-30" value="" style="endArrow=classic;html=1;rounded=0;dashed=1;exitX=0.5;exitY=1;exitDx=0;exitDy=0;entryX=1;entryY=0;entryDx=0;entryDy=52.5;entryPerimeter=0;" parent="1" source="sweHYaOIXjVTSPfrOcY_-35" target="sweHYaOIXjVTSPfrOcY_-10" edge="1">
          <mxGeometry width="50" height="50" relative="1" as="geometry">
            <mxPoint x="634" y="740" as="sourcePoint" />
            <mxPoint x="579" y="880" as="targetPoint" />
          </mxGeometry>
        </mxCell>
        <mxCell id="sweHYaOIXjVTSPfrOcY_-35" value="vFil contract" style="swimlane;whiteSpace=wrap;html=1;fillColor=#f8cecc;strokeColor=#b85450;" parent="1" vertex="1">
          <mxGeometry x="576.5" y="680" width="115" height="40" as="geometry" />
        </mxCell>
        <mxCell id="sweHYaOIXjVTSPfrOcY_-76" value="" style="endArrow=classic;html=1;rounded=0;dashed=1;exitX=0.767;exitY=0.083;exitDx=0;exitDy=0;exitPerimeter=0;" parent="sweHYaOIXjVTSPfrOcY_-35" source="sweHYaOIXjVTSPfrOcY_-6" edge="1">
          <mxGeometry width="50" height="50" relative="1" as="geometry">
            <mxPoint x="-16.5" y="80" as="sourcePoint" />
            <mxPoint x="23.5" y="40" as="targetPoint" />
          </mxGeometry>
        </mxCell>
        <mxCell id="sweHYaOIXjVTSPfrOcY_-77" value="3. User enters&lt;br&gt;redeem list" style="edgeLabel;html=1;align=center;verticalAlign=middle;resizable=0;points=[];" parent="sweHYaOIXjVTSPfrOcY_-76" vertex="1" connectable="0">
          <mxGeometry x="-0.354" y="3" relative="1" as="geometry">
            <mxPoint x="3" y="5" as="offset" />
          </mxGeometry>
        </mxCell>
        <mxCell id="sweHYaOIXjVTSPfrOcY_-36" value="&lt;font style=&quot;font-size: 14px;&quot;&gt;&lt;b&gt;Scenario 2:&lt;/b&gt; user redeem in Filecoin&lt;/font&gt;" style="text;html=1;strokeColor=none;fillColor=none;align=center;verticalAlign=middle;whiteSpace=wrap;rounded=0;" parent="1" vertex="1">
          <mxGeometry x="119" y="600" width="230" height="30" as="geometry" />
        </mxCell>
        <mxCell id="sweHYaOIXjVTSPfrOcY_-37" value="" style="curved=1;endArrow=classic;html=1;rounded=0;entryX=0.145;entryY=0;entryDx=0;entryDy=4.35;entryPerimeter=0;exitX=0.453;exitY=0.01;exitDx=0;exitDy=0;exitPerimeter=0;" parent="1" source="a1JTIRyVCKcMxM_mY2sI-1" target="a1JTIRyVCKcMxM_mY2sI-1" edge="1">
          <mxGeometry width="50" height="50" relative="1" as="geometry">
            <mxPoint x="180" y="210" as="sourcePoint" />
            <mxPoint x="240" y="160" as="targetPoint" />
            <Array as="points">
              <mxPoint x="160" y="160" />
            </Array>
          </mxGeometry>
        </mxCell>
        <mxCell id="sweHYaOIXjVTSPfrOcY_-38" value="2. Burn vFil." style="edgeLabel;html=1;align=center;verticalAlign=middle;resizable=0;points=[];" parent="sweHYaOIXjVTSPfrOcY_-37" vertex="1" connectable="0">
          <mxGeometry x="0.3302" y="4" relative="1" as="geometry">
            <mxPoint x="2" as="offset" />
          </mxGeometry>
        </mxCell>
        <mxCell id="sweHYaOIXjVTSPfrOcY_-43" value="" style="endArrow=none;dashed=1;html=1;dashPattern=1 3;strokeWidth=2;rounded=0;exitX=0.5;exitY=0;exitDx=0;exitDy=0;" parent="1" source="womPOICztjm91fhaPhi_-3" edge="1">
          <mxGeometry width="50" height="50" relative="1" as="geometry">
            <mxPoint x="690" y="406" as="sourcePoint" />
            <mxPoint x="700" y="376" as="targetPoint" />
          </mxGeometry>
        </mxCell>
        <mxCell id="sweHYaOIXjVTSPfrOcY_-44" value="" style="endArrow=none;dashed=1;html=1;dashPattern=1 3;strokeWidth=2;rounded=0;entryX=0.5;entryY=1;entryDx=0;entryDy=0;exitX=0.5;exitY=0;exitDx=0;exitDy=0;" parent="1" source="womPOICztjm91fhaPhi_-4" target="yuQFEDINcLpY2eNo5cRC-3" edge="1">
          <mxGeometry width="50" height="50" relative="1" as="geometry">
            <mxPoint x="700" y="426" as="sourcePoint" />
            <mxPoint x="750" y="376" as="targetPoint" />
          </mxGeometry>
        </mxCell>
        <mxCell id="sweHYaOIXjVTSPfrOcY_-45" value="" style="endArrow=none;dashed=1;html=1;dashPattern=1 3;strokeWidth=2;rounded=0;entryX=1;entryY=1;entryDx=0;entryDy=0;exitX=0;exitY=0.5;exitDx=0;exitDy=0;" parent="1" source="yuQFEDINcLpY2eNo5cRC-3" target="sweHYaOIXjVTSPfrOcY_-1" edge="1">
          <mxGeometry width="50" height="50" relative="1" as="geometry">
            <mxPoint x="650" y="326" as="sourcePoint" />
            <mxPoint x="700" y="276" as="targetPoint" />
          </mxGeometry>
        </mxCell>
        <mxCell id="sweHYaOIXjVTSPfrOcY_-47" value="" style="endArrow=classic;html=1;rounded=0;entryX=0;entryY=1;entryDx=0;entryDy=0;" parent="1" target="sweHYaOIXjVTSPfrOcY_-1" edge="1">
          <mxGeometry width="50" height="50" relative="1" as="geometry">
            <mxPoint x="570" y="360" as="sourcePoint" />
            <mxPoint x="620" y="266" as="targetPoint" />
          </mxGeometry>
        </mxCell>
        <mxCell id="sweHYaOIXjVTSPfrOcY_-49" value="5. Transfer &lt;br&gt;erc-20 vFil" style="edgeLabel;html=1;align=center;verticalAlign=middle;resizable=0;points=[];" parent="sweHYaOIXjVTSPfrOcY_-47" vertex="1" connectable="0">
          <mxGeometry x="-0.6324" y="-1" relative="1" as="geometry">
            <mxPoint x="-19" y="-18" as="offset" />
          </mxGeometry>
        </mxCell>
        <mxCell id="sweHYaOIXjVTSPfrOcY_-51" value="" style="endArrow=classic;html=1;rounded=0;exitX=0;exitY=0.25;exitDx=0;exitDy=0;entryX=0.855;entryY=1;entryDx=0;entryDy=-4.35;entryPerimeter=0;dashed=1;" parent="1" source="QOcSFR8y_e22kkafj4sU-6" target="a1JTIRyVCKcMxM_mY2sI-1" edge="1">
          <mxGeometry width="50" height="50" relative="1" as="geometry">
            <mxPoint x="-30" y="376" as="sourcePoint" />
            <mxPoint x="20" y="326" as="targetPoint" />
          </mxGeometry>
        </mxCell>
        <mxCell id="sweHYaOIXjVTSPfrOcY_-52" value="3. User enters &lt;br&gt;redeem list" style="edgeLabel;html=1;align=center;verticalAlign=middle;resizable=0;points=[];" parent="sweHYaOIXjVTSPfrOcY_-51" vertex="1" connectable="0">
          <mxGeometry x="0.156" y="2" relative="1" as="geometry">
            <mxPoint x="-9" y="5" as="offset" />
          </mxGeometry>
        </mxCell>
        <mxCell id="sweHYaOIXjVTSPfrOcY_-53" value="6. Burn erc-20 vFil" style="curved=1;endArrow=classic;html=1;rounded=0;entryX=1;entryY=0;entryDx=0;entryDy=0;exitX=0.622;exitY=0.013;exitDx=0;exitDy=0;exitPerimeter=0;" parent="1" source="sweHYaOIXjVTSPfrOcY_-1" target="sweHYaOIXjVTSPfrOcY_-1" edge="1">
          <mxGeometry x="0.5291" y="7" width="50" height="50" relative="1" as="geometry">
            <mxPoint x="650" y="220" as="sourcePoint" />
            <mxPoint x="650" y="110" as="targetPoint" />
            <Array as="points">
              <mxPoint x="670" y="160" />
            </Array>
            <mxPoint x="1" as="offset" />
          </mxGeometry>
        </mxCell>
        <mxCell id="sweHYaOIXjVTSPfrOcY_-54" value="" style="endArrow=classic;html=1;rounded=0;exitX=0.5;exitY=0;exitDx=0;exitDy=0;entryX=0.25;entryY=1;entryDx=0;entryDy=0;dashed=1;" parent="1" target="sweHYaOIXjVTSPfrOcY_-1" edge="1" source="DK4NJg0vtxCIoISA5mPc-1">
          <mxGeometry width="50" height="50" relative="1" as="geometry">
            <mxPoint x="576" y="354.5" as="sourcePoint" />
            <mxPoint x="630" y="296" as="targetPoint" />
          </mxGeometry>
        </mxCell>
        <mxCell id="sweHYaOIXjVTSPfrOcY_-55" value="7. Proxy enters&lt;br&gt;&amp;nbsp;redeem list" style="edgeLabel;html=1;align=center;verticalAlign=middle;resizable=0;points=[];" parent="sweHYaOIXjVTSPfrOcY_-54" vertex="1" connectable="0">
          <mxGeometry x="0.3165" y="2" relative="1" as="geometry">
            <mxPoint x="27" as="offset" />
          </mxGeometry>
        </mxCell>
        <mxCell id="sweHYaOIXjVTSPfrOcY_-57" value="" style="curved=1;endArrow=classic;html=1;rounded=0;" parent="1" edge="1">
          <mxGeometry width="50" height="50" relative="1" as="geometry">
            <mxPoint x="680" y="266" as="sourcePoint" />
            <mxPoint x="583" y="400" as="targetPoint" />
            <Array as="points">
              <mxPoint x="650" y="466" />
              <mxPoint x="600" y="476" />
            </Array>
          </mxGeometry>
        </mxCell>
        <mxCell id="sweHYaOIXjVTSPfrOcY_-58" value="9. Transfer FIL" style="edgeLabel;html=1;align=center;verticalAlign=middle;resizable=0;points=[];" parent="sweHYaOIXjVTSPfrOcY_-57" vertex="1" connectable="0">
          <mxGeometry x="0.3831" y="-6" relative="1" as="geometry">
            <mxPoint as="offset" />
          </mxGeometry>
        </mxCell>
        <mxCell id="sweHYaOIXjVTSPfrOcY_-60" value="" style="endArrow=classic;html=1;rounded=0;dashed=1;entryX=0.855;entryY=0;entryDx=0;entryDy=4.35;entryPerimeter=0;" parent="1" edge="1" target="womPOICztjm91fhaPhi_-1">
          <mxGeometry width="50" height="50" relative="1" as="geometry">
            <mxPoint x="540" y="360" as="sourcePoint" />
            <mxPoint x="450" y="500" as="targetPoint" />
            <Array as="points" />
          </mxGeometry>
        </mxCell>
        <mxCell id="sweHYaOIXjVTSPfrOcY_-61" value="10. Relay redeem&lt;br&gt;&amp;nbsp;success info" style="edgeLabel;html=1;align=center;verticalAlign=middle;resizable=0;points=[];" parent="sweHYaOIXjVTSPfrOcY_-60" vertex="1" connectable="0">
          <mxGeometry x="0.108" y="-2" relative="1" as="geometry">
            <mxPoint x="-13" y="-1" as="offset" />
          </mxGeometry>
        </mxCell>
        <mxCell id="sweHYaOIXjVTSPfrOcY_-62" value="" style="endArrow=classic;html=1;rounded=0;exitX=0;exitY=0;exitDx=0;exitDy=15;exitPerimeter=0;dashed=1;entryX=0.331;entryY=1.01;entryDx=0;entryDy=0;entryPerimeter=0;" parent="1" source="womPOICztjm91fhaPhi_-1" target="a1JTIRyVCKcMxM_mY2sI-1" edge="1">
          <mxGeometry width="50" height="50" relative="1" as="geometry">
            <mxPoint x="160" y="516" as="sourcePoint" />
            <mxPoint x="180" y="270" as="targetPoint" />
            <Array as="points" />
          </mxGeometry>
        </mxCell>
        <mxCell id="sweHYaOIXjVTSPfrOcY_-63" value="" style="curved=1;endArrow=classic;html=1;rounded=0;" parent="1" edge="1">
          <mxGeometry width="50" height="50" relative="1" as="geometry">
            <mxPoint x="220" y="216" as="sourcePoint" />
            <mxPoint x="320" y="306" as="targetPoint" />
            <Array as="points">
              <mxPoint x="240" y="216" />
              <mxPoint x="390" y="206" />
            </Array>
          </mxGeometry>
        </mxCell>
        <mxCell id="sweHYaOIXjVTSPfrOcY_-64" value="11. Transfer FiL" style="edgeLabel;html=1;align=center;verticalAlign=middle;resizable=0;points=[];" parent="sweHYaOIXjVTSPfrOcY_-63" vertex="1" connectable="0">
          <mxGeometry x="-0.554" y="1" relative="1" as="geometry">
            <mxPoint y="-1" as="offset" />
          </mxGeometry>
        </mxCell>
        <mxCell id="sweHYaOIXjVTSPfrOcY_-67" value="" style="endArrow=classic;html=1;rounded=0;dashed=1;entryX=0.855;entryY=1;entryDx=0;entryDy=-4.35;entryPerimeter=0;" parent="1" edge="1" target="womPOICztjm91fhaPhi_-1">
          <mxGeometry width="50" height="50" relative="1" as="geometry">
            <mxPoint x="580" y="400" as="sourcePoint" />
            <mxPoint x="470" y="521" as="targetPoint" />
            <Array as="points" />
          </mxGeometry>
        </mxCell>
        <mxCell id="sweHYaOIXjVTSPfrOcY_-68" value="" style="endArrow=classic;html=1;rounded=0;exitX=0;exitY=1;exitDx=0;exitDy=-15;exitPerimeter=0;entryX=0.5;entryY=1;entryDx=0;entryDy=0;entryPerimeter=0;dashed=1;" parent="1" source="womPOICztjm91fhaPhi_-1" target="vg2QMB-9QiaMBjMP-zvf-1" edge="1">
          <mxGeometry width="50" height="50" relative="1" as="geometry">
            <mxPoint x="380" y="480" as="sourcePoint" />
            <mxPoint x="290" y="360" as="targetPoint" />
            <Array as="points" />
          </mxGeometry>
        </mxCell>
        <mxCell id="sweHYaOIXjVTSPfrOcY_-69" value="8. Sync &lt;br&gt;vFill/FIL&lt;br&gt;&amp;nbsp;exchange &lt;br&gt;rate" style="edgeLabel;html=1;align=center;verticalAlign=middle;resizable=0;points=[];" parent="sweHYaOIXjVTSPfrOcY_-68" vertex="1" connectable="0">
          <mxGeometry x="-0.1039" y="2" relative="1" as="geometry">
            <mxPoint x="230" y="-9" as="offset" />
          </mxGeometry>
        </mxCell>
        <mxCell id="sweHYaOIXjVTSPfrOcY_-71" value="" style="curved=1;endArrow=classic;html=1;rounded=0;entryX=0;entryY=0.25;entryDx=0;entryDy=0;exitX=0.375;exitY=0;exitDx=0;exitDy=0;" parent="1" source="sweHYaOIXjVTSPfrOcY_-6" target="sweHYaOIXjVTSPfrOcY_-35" edge="1">
          <mxGeometry width="50" height="50" relative="1" as="geometry">
            <mxPoint x="540" y="740" as="sourcePoint" />
            <mxPoint x="530" y="670" as="targetPoint" />
            <Array as="points">
              <mxPoint x="530" y="700" />
              <mxPoint x="540" y="690" />
            </Array>
          </mxGeometry>
        </mxCell>
        <mxCell id="sweHYaOIXjVTSPfrOcY_-72" value="1. Transfer&lt;br&gt;erc-20 vFil" style="edgeLabel;html=1;align=center;verticalAlign=middle;resizable=0;points=[];" parent="sweHYaOIXjVTSPfrOcY_-71" vertex="1" connectable="0">
          <mxGeometry x="-0.2139" relative="1" as="geometry">
            <mxPoint x="2" y="-4" as="offset" />
          </mxGeometry>
        </mxCell>
        <mxCell id="sweHYaOIXjVTSPfrOcY_-74" value="" style="curved=1;endArrow=classic;html=1;rounded=0;exitX=0.596;exitY=-0.062;exitDx=0;exitDy=0;exitPerimeter=0;entryX=1;entryY=0;entryDx=0;entryDy=0;" parent="1" source="sweHYaOIXjVTSPfrOcY_-35" target="sweHYaOIXjVTSPfrOcY_-35" edge="1">
          <mxGeometry width="50" height="50" relative="1" as="geometry">
            <mxPoint x="650" y="660" as="sourcePoint" />
            <mxPoint x="700" y="610" as="targetPoint" />
            <Array as="points">
              <mxPoint x="670" y="640" />
            </Array>
          </mxGeometry>
        </mxCell>
        <mxCell id="sweHYaOIXjVTSPfrOcY_-75" value="2. Burn erc-20 vFil." style="edgeLabel;html=1;align=center;verticalAlign=middle;resizable=0;points=[];" parent="sweHYaOIXjVTSPfrOcY_-74" vertex="1" connectable="0">
          <mxGeometry x="0.2889" y="-6" relative="1" as="geometry">
            <mxPoint as="offset" />
          </mxGeometry>
        </mxCell>
        <mxCell id="sweHYaOIXjVTSPfrOcY_-79" value="" style="curved=1;endArrow=classic;html=1;rounded=0;exitX=0.25;exitY=0;exitDx=0;exitDy=0;entryX=0;entryY=0.25;entryDx=0;entryDy=0;" parent="1" source="sweHYaOIXjVTSPfrOcY_-35" target="sweHYaOIXjVTSPfrOcY_-6" edge="1">
          <mxGeometry width="50" height="50" relative="1" as="geometry">
            <mxPoint x="530" y="670" as="sourcePoint" />
            <mxPoint x="580" y="620" as="targetPoint" />
            <Array as="points">
              <mxPoint x="605" y="640" />
              <mxPoint x="520" y="620" />
              <mxPoint x="470" y="690" />
            </Array>
          </mxGeometry>
        </mxCell>
        <mxCell id="sweHYaOIXjVTSPfrOcY_-80" value="5, Transfer FIL" style="edgeLabel;html=1;align=center;verticalAlign=middle;resizable=0;points=[];" parent="sweHYaOIXjVTSPfrOcY_-79" vertex="1" connectable="0">
          <mxGeometry x="0.0136" relative="1" as="geometry">
            <mxPoint x="1" as="offset" />
          </mxGeometry>
        </mxCell>
        <mxCell id="sweHYaOIXjVTSPfrOcY_-81" value="" style="endArrow=none;dashed=1;html=1;dashPattern=1 3;strokeWidth=2;rounded=0;exitX=0;exitY=0.5;exitDx=0;exitDy=0;" parent="1" source="sweHYaOIXjVTSPfrOcY_-17" edge="1">
          <mxGeometry width="50" height="50" relative="1" as="geometry">
            <mxPoint x="740" y="750" as="sourcePoint" />
            <mxPoint x="680" y="720" as="targetPoint" />
          </mxGeometry>
        </mxCell>
        <mxCell id="sweHYaOIXjVTSPfrOcY_-82" value="" style="endArrow=none;dashed=1;html=1;dashPattern=1 3;strokeWidth=2;rounded=0;entryX=1;entryY=1;entryDx=0;entryDy=0;exitX=0.5;exitY=0;exitDx=0;exitDy=0;" parent="1" source="sweHYaOIXjVTSPfrOcY_-11" target="sweHYaOIXjVTSPfrOcY_-4" edge="1">
          <mxGeometry width="50" height="50" relative="1" as="geometry">
            <mxPoint x="600" y="950" as="sourcePoint" />
            <mxPoint x="650" y="900" as="targetPoint" />
          </mxGeometry>
        </mxCell>
        <mxCell id="sweHYaOIXjVTSPfrOcY_-83" value="" style="endArrow=none;dashed=1;html=1;dashPattern=1 3;strokeWidth=2;rounded=0;entryX=0.5;entryY=1;entryDx=0;entryDy=0;" parent="1" target="sweHYaOIXjVTSPfrOcY_-17" edge="1">
          <mxGeometry width="50" height="50" relative="1" as="geometry">
            <mxPoint x="730" y="860" as="sourcePoint" />
            <mxPoint x="760" y="850" as="targetPoint" />
          </mxGeometry>
        </mxCell>
        <mxCell id="DK4NJg0vtxCIoISA5mPc-1" value="cross contract" style="swimlane;whiteSpace=wrap;html=1;fillColor=#f8cecc;strokeColor=#b85450;" parent="1" vertex="1">
          <mxGeometry x="540" y="361" width="100" height="40" as="geometry" />
        </mxCell>
        <mxCell id="DK4NJg0vtxCIoISA5mPc-2" value="cross contract" style="swimlane;whiteSpace=wrap;html=1;fillColor=#f8cecc;strokeColor=#b85450;" parent="1" vertex="1">
          <mxGeometry x="549" y="845" width="100" height="40" as="geometry" />
        </mxCell>
        <mxCell id="vg2QMB-9QiaMBjMP-zvf-1" value="SLP module" style="shape=cylinder3;whiteSpace=wrap;html=1;boundedLbl=1;backgroundOutline=1;size=15;" vertex="1" parent="1">
          <mxGeometry x="130" y="390" width="80" height="50" as="geometry" />
        </mxCell>
        <mxCell id="vg2QMB-9QiaMBjMP-zvf-2" value="SLP module" style="shape=cylinder3;whiteSpace=wrap;html=1;boundedLbl=1;backgroundOutline=1;size=15;" vertex="1" parent="1">
          <mxGeometry x="169" y="835" width="80" height="50" as="geometry" />
        </mxCell>
      </root>
    </mxGraphModel>
  </diagram>
</mxfile>
